<svg height="80" viewBox="0 0 236 80" width="236" xmlns="http://www.w3.org/2000/svg" xmlns:xlink="http://www.w3.org/1999/xlink"><linearGradient id="a" gradientUnits="objectBoundingBox" x1=".105" x2=".885" y2=".922"><stop offset="0" stop-color="#2da4b9"/><stop offset="1" stop-color="#9b2878"/></linearGradient><path d="m12.776.4a22.546 22.546 0 0 1 -5.21-.6 14.19 14.19 0 0 1 -4.412-1.8 2.4 2.4 0 0 1 -1.118-1.48 2.611 2.611 0 0 1 .14-1.66 1.95 1.95 0 0 1 1.078-1.08 1.838 1.838 0 0 1 1.7.3 13.626 13.626 0 0 0 3.709 1.52 17.2 17.2 0 0 0 4.112.48 7.828 7.828 0 0 0 4.591-1.06 3.261 3.261 0 0 0 1.434-2.74 2.644 2.644 0 0 0 -1.018-2.2 8.82 8.82 0 0 0 -3.493-1.32l-4.389-.92q-7.5-1.6-7.5-7.72a7.717 7.717 0 0 1 1.4-4.6 9.087 9.087 0 0 1 3.873-3.04 14.162 14.162 0 0 1 5.709-1.08 16.9 16.9 0 0 1 4.551.6 13.165 13.165 0 0 1 3.867 1.76 2.177 2.177 0 0 1 .958 1.38 2.282 2.282 0 0 1 -.2 1.52 1.9 1.9 0 0 1 -1.138.96 2.217 2.217 0 0 1 -1.817-.34 11.353 11.353 0 0 0 -2.994-1.2 14.159 14.159 0 0 0 -3.274-.36 7.083 7.083 0 0 0 -4.312 1.16 3.617 3.617 0 0 0 -1.557 3.04 2.938 2.938 0 0 0 .958 2.3 7.161 7.161 0 0 0 3.276 1.34l4.352.92a12.308 12.308 0 0 1 5.889 2.64 6.24 6.24 0 0 1 1.936 4.8 7.5 7.5 0 0 1 -1.357 4.44 8.778 8.778 0 0 1 -3.855 2.98 14.989 14.989 0 0 1 -5.889 1.06zm24.633 0a12.274 12.274 0 0 1 -5.709-1.24 8.805 8.805 0 0 1 -3.693-3.52 10.738 10.738 0 0 1 -1.3-5.4 10.84 10.84 0 0 1 1.258-5.32 9.251 9.251 0 0 1 3.473-3.58 9.793 9.793 0 0 1 5.05-1.3 8.461 8.461 0 0 1 6.568 2.64 10.26 10.26 0 0 1 2.415 7.2q0 1.48-1.916 1.48h-12.055q.559 5.24 5.989 5.24a12.006 12.006 0 0 0 2.336-.26 8.5 8.5 0 0 0 2.455-.9 2.256 2.256 0 0 1 1.757-.38 1.575 1.575 0 0 1 1.018.86 1.986 1.986 0 0 1 .08 1.42 2.36 2.36 0 0 1 -1.135 1.34 10.36 10.36 0 0 1 -3.214 1.3 15.038 15.038 0 0 1 -3.377.42zm-.719-16.96a4.8 4.8 0 0 0 -3.553 1.36 6.054 6.054 0 0 0 -1.637 3.68h9.822a6 6 0 0 0 -1.337-3.74 4.218 4.218 0 0 0 -3.294-1.3zm15.292 16.88a2.261 2.261 0 0 1 -2.555-2.56v-15.12q0-2.52 2.435-2.52t2.438 2.52v1.24q1.437-3.44 6.148-3.84 1.717-.2 1.916 1.96.2 2.12-2.076 2.36l-.878.08q-4.911.48-4.911 5.04v8.28a2.243 2.243 0 0 1 -2.517 2.56zm15.571-23.88a3.14 3.14 0 0 1 -2.176-.7 2.475 2.475 0 0 1 -.777-1.94 2.463 2.463 0 0 1 .779-1.96 3.2 3.2 0 0 1 2.176-.68q2.954 0 2.954 2.64t-2.956 2.64zm0 23.84a2.326 2.326 0 0 1 -1.837-.72 2.91 2.91 0 0 1 -.639-2v-14.68q0-2.72 2.475-2.72 2.515 0 2.515 2.72v14.68a2.91 2.91 0 0 1 -.639 2 2.377 2.377 0 0 1 -1.875.72zm17.327.12a12.274 12.274 0 0 1 -5.709-1.24 8.805 8.805 0 0 1 -3.693-3.52 10.738 10.738 0 0 1 -1.3-5.4 10.84 10.84 0 0 1 1.258-5.32 9.251 9.251 0 0 1 3.473-3.58 9.793 9.793 0 0 1 5.05-1.3 8.461 8.461 0 0 1 6.568 2.64 10.26 10.26 0 0 1 2.415 7.2q0 1.48-1.916 1.48h-12.055q.559 5.24 5.989 5.24a12.006 12.006 0 0 0 2.34-.26 8.5 8.5 0 0 0 2.455-.9 2.256 2.256 0 0 1 1.757-.38 1.575 1.575 0 0 1 1.018.86 1.986 1.986 0 0 1 .08 1.42 2.36 2.36 0 0 1 -1.138 1.34 10.36 10.36 0 0 1 -3.214 1.3 15.038 15.038 0 0 1 -3.378.42zm-.719-16.96a4.8 4.8 0 0 0 -3.553 1.36 6.054 6.054 0 0 0 -1.637 3.68h9.822a6 6 0 0 0 -1.337-3.74 4.218 4.218 0 0 0 -3.295-1.3zm19.883 16.96a19.708 19.708 0 0 1 -3.633-.36 10.737 10.737 0 0 1 -3.434-1.24 2.042 2.042 0 0 1 -1.038-1.18 1.945 1.945 0 0 1 .061-1.32 1.66 1.66 0 0 1 .878-.9 1.69 1.69 0 0 1 1.457.12 13.752 13.752 0 0 0 2.994 1.06 13.1 13.1 0 0 0 2.755.3 4.99 4.99 0 0 0 2.855-.66 2.034 2.034 0 0 0 .938-1.74q0-1.68-2.475-2.16l-3.992-.76q-5.07-.96-5.07-5.28a5.35 5.35 0 0 1 1.06-3.32 6.75 6.75 0 0 1 2.934-2.16 11.417 11.417 0 0 1 4.312-.76 12.5 12.5 0 0 1 6.268 1.56 1.587 1.587 0 0 1 .9 1.1 2.039 2.039 0 0 1 -.16 1.32 1.734 1.734 0 0 1 -.938.88 1.793 1.793 0 0 1 -1.477-.14 10.845 10.845 0 0 0 -2.376-.92 9.107 9.107 0 0 0 -2.176-.28 4.959 4.959 0 0 0 -2.895.68 2.119 2.119 0 0 0 -.938 1.8q0 1.76 2.276 2.16l3.992.76a7.552 7.552 0 0 1 3.933 1.76 4.538 4.538 0 0 1 1.337 3.44 5.357 5.357 0 0 1 -2.276 4.58 10.076 10.076 0 0 1 -6.072 1.66zm-91.628 37.92q-2.555 0-2.555-2.64v-21.6h-7.785a1.925 1.925 0 0 1 -2.2-2.16 1.908 1.908 0 0 1 2.2-2.12h20.681a1.908 1.908 0 0 1 2.2 2.12 1.925 1.925 0 0 1 -2.2 2.16h-7.785v21.6q0 2.64-2.556 2.64zm14.413 0a2.261 2.261 0 0 1 -2.555-2.56v-15.12q0-2.52 2.435-2.52t2.435 2.52v1.24q1.437-3.44 6.148-3.84 1.717-.2 1.916 1.96.2 2.12-2.076 2.36l-.878.08q-4.911.48-4.911 5.04v8.28a2.243 2.243 0 0 1 -2.514 2.56zm19.324.08a8.4 8.4 0 0 1 -3.773-.82 6.533 6.533 0 0 1 -2.6-2.22 5.547 5.547 0 0 1 -.938-3.16 4.968 4.968 0 0 1 1.118-3.42 6.669 6.669 0 0 1 3.64-1.82 32.335 32.335 0 0 1 6.747-.56h1.4v-.84a3.965 3.965 0 0 0 -.878-2.88 4.078 4.078 0 0 0 -2.954-.88 12.22 12.22 0 0 0 -2.5.28 13.277 13.277 0 0 0 -2.815.96 1.763 1.763 0 0 1 -1.6.1 1.721 1.721 0 0 1 -.858-1.08 2.245 2.245 0 0 1 .08-1.5 2 2 0 0 1 1.218-1.12 17.99 17.99 0 0 1 3.533-1.08 16.817 16.817 0 0 1 3.094-.32q4.272 0 6.348 1.98t2.076 6.14v9.6q0 2.56-2.316 2.56-2.356 0-2.356-2.56v-.88a5.457 5.457 0 0 1 -2.156 2.58 6.405 6.405 0 0 1 -3.51.94zm1.038-3.44a4.31 4.31 0 0 0 3.254-1.36 4.783 4.783 0 0 0 1.3-3.44v-.88h-1.36a15.921 15.921 0 0 0 -5.21.58 2.1 2.1 0 0 0 -1.457 2.1 2.8 2.8 0 0 0 .918 2.16 3.646 3.646 0 0 0 2.555.84zm23.4 3.44a10.872 10.872 0 0 1 -5.35-1.26 8.666 8.666 0 0 1 -3.513-3.58 11.393 11.393 0 0 1 -1.238-5.44 11.04 11.04 0 0 1 1.238-5.38 8.5 8.5 0 0 1 3.513-3.48 11.161 11.161 0 0 1 5.35-1.22 12.57 12.57 0 0 1 2.855.36 9.648 9.648 0 0 1 2.895 1.2 1.823 1.823 0 0 1 .938 1.24 2.1 2.1 0 0 1 -.2 1.4 1.975 1.975 0 0 1 -1 .92 1.643 1.643 0 0 1 -1.5-.2 7.206 7.206 0 0 0 -3.553-1.04 5.047 5.047 0 0 0 -4.012 1.62 6.8 6.8 0 0 0 -1.414 4.62 7.059 7.059 0 0 0 1.417 4.66 4.933 4.933 0 0 0 4.012 1.7 7.421 7.421 0 0 0 3.553-1 1.607 1.607 0 0 1 1.477-.2 1.717 1.717 0 0 1 .918.94 2.276 2.276 0 0 1 .12 1.4 1.912 1.912 0 0 1 -.918 1.22 9.849 9.849 0 0 1 -2.795 1.16 11.82 11.82 0 0 1 -2.797.36zm12.3-.08q-2.475 0-2.475-2.56v-23.76a2.5 2.5 0 1 1 4.984 0v14.76h.08l6.588-6.96a12.64 12.64 0 0 1 1.4-1.24 2.712 2.712 0 0 1 1.637-.44 2.135 2.135 0 0 1 1.577.54 1.774 1.774 0 0 1 .539 1.3 2.24 2.24 0 0 1 -.719 1.52l-5.993 6.32 6.668 7.2a2.016 2.016 0 0 1 .659 1.54 1.782 1.782 0 0 1 -.659 1.28 2.287 2.287 0 0 1 -1.517.5 3.158 3.158 0 0 1 -1.777-.44 8.266 8.266 0 0 1 -1.457-1.32l-6.947-7.28h-.079v6.48a2.243 2.243 0 0 1 -2.516 2.56zm28.147.08a12.274 12.274 0 0 1 -5.709-1.24 8.805 8.805 0 0 1 -3.693-3.52 10.738 10.738 0 0 1 -1.3-5.4 10.84 10.84 0 0 1 1.258-5.32 9.251 9.251 0 0 1 3.473-3.58 9.793 9.793 0 0 1 5.05-1.3 8.461 8.461 0 0 1 6.568 2.64 10.26 10.26 0 0 1 2.415 7.2q0 1.48-1.916 1.48h-12.062q.559 5.24 5.989 5.24a12.006 12.006 0 0 0 2.336-.26 8.5 8.5 0 0 0 2.455-.9 2.256 2.256 0 0 1 1.757-.38 1.575 1.575 0 0 1 1.018.86 1.986 1.986 0 0 1 .08 1.42 2.36 2.36 0 0 1 -1.138 1.34 10.36 10.36 0 0 1 -3.214 1.3 15.038 15.038 0 0 1 -3.374.42zm-.719-16.96a4.8 4.8 0 0 0 -3.553 1.36 6.054 6.054 0 0 0 -1.637 3.68h9.822a6 6 0 0 0 -1.337-3.74 4.218 4.218 0 0 0 -3.302-1.3zm15.281 16.88a2.261 2.261 0 0 1 -2.555-2.56v-15.12q0-2.52 2.435-2.52t2.435 2.52v1.24q1.437-3.44 6.148-3.84 1.717-.2 1.916 1.96.2 2.12-2.076 2.36l-.878.08q-4.911.48-4.911 5.04v8.28a2.243 2.243 0 0 1 -2.514 2.56z" fill="#f0f0f5" transform="translate(100 34)"/><rect fill="url(#a)" height="80" rx="20" transform="matrix(-1 0 0 -1 80 80)" width="80"/><g fill="none"><g transform="matrix(0 1 -1 0 60 17)"><path d="m18.211 3.578a2 2 0 0 1 3.578 0l16.764 33.528a2 2 0 0 1 -1.789 2.894h-33.528a2 2 0 0 1 -1.789-2.894z"/><path d="m19.99999809 6.70819855-15.145895 30.29180145h30.29179001zm0-4.23606491c.71016503 0 1.42033005.36852646 1.78885651 1.10557556l16.76392937 33.52787018c.6648674 1.32971954-.30221939 2.89442062-1.78883744 2.89442062-.00008773 0 .0000763 0-.00001144 0h-33.52787018c-1.486763.00000763-2.45375061-1.56462097-1.78885269-2.89442062l16.76393127-33.52787018c.36852456-.7370491 1.07868958-1.10557556 1.7888546-1.10557556z" fill="#f0f0f5"/></g><g transform="matrix(0 1 -1 0 60 33)"><path d="m13.211 3.578a2 2 0 0 1 3.578 0l11.764 23.528a2 2 0 0 1 -1.789 2.894h-23.528a2 2 0 0 1 -1.789-2.894z"/><path d="m14.99999523 6.70819664-10.14589596 20.29180145h20.29180146zm0-4.23606491c.71016503 0 1.420331.36852646 1.78885365 1.10557556l11.76394081 23.52787018c.66489982 1.32979965-.30208969 2.89442062-1.78886032 2.89442062h-23.52785874c-1.48677063 0-2.45376014-1.56462097-1.78886032-2.89442062l11.76392937-23.52787018c.36852455-.7370491 1.07869053-1.10557556 1.78885555-1.10557556z" fill="#f0f0f5"/></g></g></svg>